<svg xmlns="http://www.w3.org/2000/svg" xmlns:xlink="http://www.w3.org/1999/xlink" width="210" height="369" version="1.1" style="background-color:#fff"><g transform="translate(0.5,0.5)"><path fill="#fff" stroke="#000" stroke-miterlimit="10" stroke-width="1.8" d="M 96.3 344.7 L 103.43 344.7 C 103.68 344.7 103.89 344.5 103.89 344.25 L 103.89 342.9 L 106.71 342.9 L 106.71 344.25 C 106.71 344.5 106.92 344.7 107.17 344.7 L 114.3 344.7 L 111.86 341.1 L 114.3 337.5 L 109.52 337.5 L 109.52 336.15 C 109.52 335.9 109.31 335.7 109.05 335.7 L 101.55 335.7 C 101.29 335.7 101.08 335.9 101.08 336.15 L 101.08 337.5 L 96.3 337.5 L 98.74 341.1 Z" pointer-events="none" transform="rotate(30,105.3,340.2)"/><path fill="none" stroke="#000" stroke-miterlimit="10" stroke-width="1.8" d="M 103.89 344.25 C 103.89 344 103.68 343.8 103.43 343.8 L 101.55 343.8 C 101.29 343.8 101.08 343.6 101.08 343.35 C 101.08 343.1 101.29 342.9 101.55 342.9 L 109.05 342.9 C 109.31 342.9 109.52 343.1 109.52 343.35 C 109.52 343.6 109.31 343.8 109.05 343.8 L 107.17 343.8 C 106.92 343.8 106.71 344 106.71 344.25 M 101.08 343.35 L 101.08 337.5 M 109.52 343.35 L 109.52 337.5" pointer-events="none" transform="rotate(30,105.3,340.2)"/><path fill="#fff" stroke="#000" stroke-miterlimit="10" stroke-width="1.8" d="M 106.2 362.7 L 113.33 362.7 C 113.58 362.7 113.79 362.5 113.79 362.25 L 113.79 360.9 L 116.61 360.9 L 116.61 362.25 C 116.61 362.5 116.82 362.7 117.07 362.7 L 124.2 362.7 L 121.76 359.1 L 124.2 355.5 L 119.42 355.5 L 119.42 354.15 C 119.42 353.9 119.21 353.7 118.95 353.7 L 111.45 353.7 C 111.19 353.7 110.98 353.9 110.98 354.15 L 110.98 355.5 L 106.2 355.5 L 108.64 359.1 Z" pointer-events="none" transform="rotate(30,115.2,358.2)"/><path fill="none" stroke="#000" stroke-miterlimit="10" stroke-width="1.8" d="M 113.79 362.25 C 113.79 362 113.58 361.8 113.33 361.8 L 111.45 361.8 C 111.19 361.8 110.98 361.6 110.98 361.35 C 110.98 361.1 111.19 360.9 111.45 360.9 L 118.95 360.9 C 119.21 360.9 119.42 361.1 119.42 361.35 C 119.42 361.6 119.21 361.8 118.95 361.8 L 117.07 361.8 C 116.82 361.8 116.61 362 116.61 362.25 M 110.98 361.35 L 110.98 355.5 M 119.42 361.35 L 119.42 355.5" pointer-events="none" transform="rotate(30,115.2,358.2)"/><path fill="#fff" stroke="#000" stroke-miterlimit="10" d="M 0.9 18 L 189.9 18 L 207.9 36 L 207.9 337.5 L 18.9 337.5 L 0.9 319.5 L 0.9 18 Z" pointer-events="none"/><path fill="none" stroke="#000" stroke-miterlimit="10" d="M 18.9 337.5 L 18.9 36 L 0.9 18 M 18.9 36 L 207.9 36" pointer-events="none"/><path fill="#fff" stroke="#e6e6e6" stroke-miterlimit="10" d="M 51.3 244.8 C 51.3 228 168.3 228 168.3 244.8 L 168.3 318.6 C 168.3 335.4 51.3 335.4 51.3 318.6 Z" pointer-events="none"/><path fill="none" stroke="#e6e6e6" stroke-miterlimit="10" d="M 51.3 244.8 C 51.3 257.4 168.3 257.4 168.3 244.8 M 51.3 251.1 C 51.3 263.7 168.3 263.7 168.3 251.1 M 51.3 257.4 C 51.3 270 168.3 270 168.3 257.4" pointer-events="none"/><path fill="#fff" stroke="#e6e6e6" stroke-miterlimit="10" d="M 48.6 109.8 L 147.6 109.8 L 165.6 127.8 L 165.6 244.8 L 66.6 244.8 L 48.6 226.8 L 48.6 109.8 Z" pointer-events="none"/><path fill="none" stroke="#e6e6e6" stroke-miterlimit="10" d="M 66.6 244.8 L 66.6 127.8 L 48.6 109.8 M 66.6 127.8 L 165.6 127.8" pointer-events="none"/><path fill="#fff" stroke="#e6e6e6" stroke-miterlimit="10" stroke-width="1.8" d="M 106.2 41.4 L 151.2 112.5 C 151.2 116.48 131.05 119.7 106.2 119.7 C 81.35 119.7 61.2 116.48 61.2 112.5 Z" pointer-events="none" transform="rotate(-180,106.2,80.55)"/><path fill="#fff" stroke="#e6e6e6" stroke-miterlimit="10" stroke-width="1.8" d="M 61.2 112.5 C 61.2 108.53 81.35 105.3 106.2 105.3 C 131.05 105.3 151.2 108.53 151.2 112.5" pointer-events="none" transform="rotate(-180,106.2,80.55)"/><path fill="#707070" stroke="#000" stroke-miterlimit="10" stroke-width="1.8" d="M 65.7 34.2 L 77.87 21.6 L 146.7 21.6 L 134.53 34.2 Z" pointer-events="none" transform="translate(106.2,0)scale(-1,1)translate(-106.2,0)"/><path fill="#fff" stroke="#000" stroke-linejoin="round" stroke-miterlimit="10" stroke-width="1.8" d="M 90.64 19.33 C 90.22 19.88 89.74 19.39 89.47 18.14 C 89.2 16.88 89.2 15.16 89.47 13.91 C 89.74 12.65 90.22 12.17 90.64 12.71 C 90.64 10.5 91.03 8.52 91.63 7.73 C 92.23 6.95 92.9 7.52 93.32 9.18 C 93.6 6.83 94.25 5.29 94.98 5.29 C 95.71 5.29 96.37 6.83 96.64 9.18 C 97.08 7.83 97.7 7.44 98.24 8.2 C 98.78 8.95 99.15 10.7 99.2 12.71 C 99.62 12.17 100.1 12.65 100.37 13.91 C 100.64 15.16 100.64 16.88 100.37 18.14 C 100.1 19.39 99.62 19.88 99.2 19.33 C 99.15 21.46 98.74 23.29 98.15 23.96 C 97.57 24.64 96.92 24.03 96.52 22.42 C 96.19 24.28 95.61 25.42 94.98 25.42 C 94.36 25.42 93.78 24.28 93.45 22.42 C 93.14 24.57 92.27 25.62 91.49 24.76 C 90.71 23.91 90.34 21.48 90.64 19.33 Z" pointer-events="none" transform="rotate(-115,94.87,18.85)"/><ellipse cx="91" cy="27" fill="#fff" stroke="#000" stroke-width="1.8" pointer-events="none" rx=".766" ry="1.192" transform="rotate(-115,94.87,18.85)"/><ellipse cx="90" cy="30" fill="#fff" stroke="#000" stroke-width="1.8" pointer-events="none" rx=".485" ry=".795" transform="rotate(-115,94.87,18.85)"/><ellipse cx="89" cy="32" fill="#fff" stroke="#000" stroke-width="1.8" pointer-events="none" rx=".306" ry=".574" transform="rotate(-115,94.87,18.85)"/><path fill="#fff" stroke="#000" stroke-linejoin="round" stroke-miterlimit="10" stroke-width="1.8" d="M 96.77 17.81 C 96.12 18.23 95.38 17.85 94.96 16.89 C 94.54 15.92 94.54 14.59 94.96 13.63 C 95.38 12.66 96.12 12.29 96.77 12.71 C 96.76 11 97.37 9.47 98.29 8.87 C 99.21 8.26 100.25 8.71 100.9 9.98 C 101.32 8.17 102.33 6.99 103.46 6.99 C 104.59 6.99 105.6 8.17 106.02 9.98 C 106.69 8.94 107.64 8.65 108.48 9.22 C 109.31 9.8 109.89 11.15 109.95 12.71 C 110.61 12.29 111.34 12.66 111.76 13.63 C 112.18 14.59 112.18 15.92 111.76 16.89 C 111.34 17.85 110.61 18.23 109.95 17.81 C 109.88 19.45 109.25 20.86 108.35 21.38 C 107.44 21.9 106.45 21.43 105.82 20.19 C 105.32 21.63 104.43 22.5 103.46 22.5 C 102.49 22.5 101.6 21.63 101.1 20.19 C 100.62 21.85 99.27 22.65 98.07 22 C 96.88 21.34 96.29 19.46 96.77 17.81 Z" pointer-events="none" transform="rotate(-115,103.28,17.44)"/><ellipse cx="97" cy="24" fill="#fff" stroke="#000" stroke-width="1.8" pointer-events="none" rx="1.181" ry=".919" transform="rotate(-115,103.28,17.44)"/><ellipse cx="96" cy="26" fill="#fff" stroke="#000" stroke-width="1.8" pointer-events="none" rx=".748" ry=".613" transform="rotate(-115,103.28,17.44)"/><ellipse cx="95" cy="27" fill="#fff" stroke="#000" stroke-width="1.8" pointer-events="none" rx=".472" ry=".442" transform="rotate(-115,103.28,17.44)"/><path fill="#fff" stroke="#000" stroke-linejoin="round" stroke-miterlimit="10" stroke-width="1.8" d="M 108.79 17.93 C 108.14 18.49 107.4 17.99 106.98 16.71 C 106.56 15.43 106.56 13.67 106.98 12.39 C 107.4 11.11 108.14 10.61 108.79 11.17 C 108.79 8.92 109.39 6.89 110.31 6.09 C 111.23 5.29 112.27 5.88 112.92 7.57 C 113.34 5.17 114.35 3.6 115.48 3.6 C 116.61 3.6 117.62 5.17 118.04 7.57 C 118.71 6.19 119.66 5.8 120.5 6.56 C 121.33 7.33 121.91 9.12 121.97 11.17 C 122.63 10.61 123.36 11.11 123.78 12.39 C 124.2 13.67 124.2 15.43 123.78 16.71 C 123.36 17.99 122.63 18.49 121.97 17.93 C 121.9 20.1 121.27 21.97 120.37 22.66 C 119.46 23.35 118.47 22.73 117.84 21.09 C 117.34 22.98 116.45 24.15 115.48 24.15 C 114.51 24.15 113.62 22.98 113.12 21.09 C 112.64 23.28 111.29 24.35 110.09 23.47 C 108.9 22.6 108.32 20.12 108.79 17.93 Z" pointer-events="none" transform="rotate(107,115.3,17.44)"/><ellipse cx="109" cy="26" fill="#fff" stroke="#000" stroke-width="1.8" pointer-events="none" rx="1.181" ry="1.217" transform="rotate(107,115.3,17.44)"/><ellipse cx="108" cy="29" fill="#fff" stroke="#000" stroke-width="1.8" pointer-events="none" rx=".748" ry=".811" transform="rotate(107,115.3,17.44)"/><ellipse cx="107" cy="31" fill="#fff" stroke="#000" stroke-width="1.8" pointer-events="none" rx=".472" ry=".586" transform="rotate(107,115.3,17.44)"/><path fill="#fff" stroke="#000" stroke-linejoin="round" stroke-miterlimit="10" stroke-width="1.8" d="M 98.6 15.57 C 97.84 16.01 96.98 15.62 96.5 14.6 C 96.01 13.58 96.01 12.18 96.5 11.16 C 96.98 10.14 97.84 9.75 98.6 10.19 C 98.59 8.4 99.3 6.78 100.37 6.15 C 101.43 5.51 102.64 5.98 103.4 7.32 C 103.89 5.41 105.06 4.16 106.37 4.16 C 107.68 4.16 108.86 5.41 109.35 7.32 C 110.12 6.22 111.23 5.91 112.2 6.52 C 113.17 7.13 113.84 8.55 113.92 10.19 C 114.68 9.75 115.54 10.14 116.02 11.16 C 116.51 12.18 116.51 13.58 116.02 14.6 C 115.54 15.62 114.68 16.01 113.92 15.57 C 113.84 17.3 113.1 18.78 112.05 19.33 C 111 19.88 109.85 19.39 109.12 18.08 C 108.54 19.59 107.5 20.52 106.37 20.52 C 105.25 20.52 104.21 19.59 103.63 18.08 C 103.08 19.83 101.5 20.68 100.11 19.98 C 98.72 19.29 98.05 17.31 98.6 15.57 Z" pointer-events="none" transform="rotate(107,106.17,15.18)"/><ellipse cx="99" cy="22" fill="#fff" stroke="#000" stroke-width="1.8" pointer-events="none" rx="1.372" ry=".968" transform="rotate(107,106.17,15.18)"/><ellipse cx="98" cy="24" fill="#fff" stroke="#000" stroke-width="1.8" pointer-events="none" rx=".869" ry=".646" transform="rotate(107,106.17,15.18)"/><ellipse cx="96" cy="26" fill="#fff" stroke="#000" stroke-width="1.8" pointer-events="none" rx=".549" ry=".466" transform="rotate(107,106.17,15.18)"/><rect width="54" height="35.1" x="141.3" y="63" fill="#b4b4b4" stroke="#000" pointer-events="none"/><rect width="50.01" height="35.1" x="143.31" y="63" fill="#e8e8e8" stroke="#000" pointer-events="none"/><rect width="9.4" height="9.49" x="144.32" y="66.56" fill="none" stroke="#000" pointer-events="none"/><rect width="9.4" height="9.49" x="154.72" y="66.56" fill="none" stroke="#000" pointer-events="none"/><rect width="16.78" height="13.04" x="168.15" y="63" fill="none" stroke="#000" pointer-events="none"/><rect width="1.68" height="4.74" x="161.44" y="79.6" fill="none" stroke="#000" pointer-events="none"/><rect width="1.68" height="4.74" x="161.44" y="86.72" fill="none" stroke="#000" pointer-events="none"/><rect width="1.68" height="4.74" x="167.81" y="79.6" fill="none" stroke="#000" pointer-events="none"/><rect width="1.68" height="4.74" x="167.81" y="86.72" fill="none" stroke="#000" pointer-events="none"/><rect width="1.68" height="4.74" x="170.5" y="79.6" fill="none" stroke="#000" pointer-events="none"/><rect width="1.68" height="4.74" x="170.5" y="86.72" fill="none" stroke="#000" pointer-events="none"/><rect width="2.01" height="11.86" x="179.9" y="80.79" fill="none" stroke="#000" pointer-events="none"/><rect width="2.01" height="11.86" x="182.92" y="80.79" fill="none" stroke="#000" pointer-events="none"/><rect width="2.01" height="11.86" x="185.94" y="80.79" fill="none" stroke="#000" pointer-events="none"/><rect width="1.01" height="16.13" x="189.96" y="72.49" fill="none" stroke="#000" pointer-events="none" rx=".5" ry=".5"/><rect width="5.71" height="17.31" x="143.98" y="80.79" fill="none" stroke="#000" pointer-events="none"/><rect width="5.71" height="17.31" x="150.36" y="80.79" fill="none" stroke="#000" pointer-events="none"/><rect width="1.68" height="4.74" x="173.18" y="79.6" fill="none" stroke="#000" pointer-events="none"/><rect width="1.68" height="4.74" x="173.18" y="86.72" fill="none" stroke="#000" pointer-events="none"/></g></svg>