<svg xmlns="http://www.w3.org/2000/svg" xmlns:xlink="http://www.w3.org/1999/xlink" width="476" height="357" version="1.1" style="background-color:#fff"><g transform="translate(0.5,0.5)"><path fill="#fff" stroke="#000" stroke-miterlimit="10" d="M 164 44 L 454 44 L 474 64 L 474 355 L 184 355 L 164 335 L 164 44 Z" pointer-events="none"/><path fill="none" stroke="#000" stroke-miterlimit="10" d="M 184 355 L 184 64 L 164 44 M 184 64 L 474 64" pointer-events="none"/><path fill="#707070" stroke="#000" stroke-miterlimit="10" stroke-width="2" d="M 217 61 L 229.18 49 L 302 49 L 289.82 61 Z" pointer-events="none" transform="translate(259.5,0)scale(-1,1)translate(-259.5,0)"/><rect width="80.87" height="34.17" x="204.26" y="87.8" fill="#b4b4b4" stroke="#000" pointer-events="none"/><rect width="74.89" height="34.17" x="207.28" y="87.8" fill="#e8e8e8" stroke="#000" pointer-events="none"/><rect width="14.07" height="9.23" x="208.78" y="91.27" fill="none" stroke="#000" pointer-events="none"/><rect width="14.07" height="9.23" x="224.37" y="91.27" fill="none" stroke="#000" pointer-events="none"/><rect width="25.13" height="12.7" x="244.47" y="87.8" fill="none" stroke="#000" pointer-events="none"/><rect width="2.51" height="4.62" x="234.42" y="103.96" fill="none" stroke="#000" pointer-events="none"/><rect width="2.51" height="4.62" x="234.42" y="110.89" fill="none" stroke="#000" pointer-events="none"/><rect width="2.51" height="4.62" x="243.97" y="103.96" fill="none" stroke="#000" pointer-events="none"/><rect width="2.51" height="4.62" x="243.97" y="110.89" fill="none" stroke="#000" pointer-events="none"/><rect width="2.51" height="4.62" x="247.99" y="103.96" fill="none" stroke="#000" pointer-events="none"/><rect width="2.51" height="4.62" x="247.99" y="110.89" fill="none" stroke="#000" pointer-events="none"/><rect width="3.02" height="11.54" x="262.06" y="105.12" fill="none" stroke="#000" pointer-events="none"/><rect width="3.02" height="11.54" x="266.58" y="105.12" fill="none" stroke="#000" pointer-events="none"/><rect width="3.02" height="11.54" x="271.11" y="105.12" fill="none" stroke="#000" pointer-events="none"/><rect width="1.51" height="15.7" x="277.14" y="97.04" fill="none" stroke="#000" pointer-events="none" rx=".75" ry=".75"/><rect width="8.54" height="16.85" x="208.28" y="105.12" fill="none" stroke="#000" pointer-events="none"/><rect width="8.54" height="16.85" x="217.83" y="105.12" fill="none" stroke="#000" pointer-events="none"/><rect width="2.51" height="4.62" x="252.01" y="103.96" fill="none" stroke="#000" pointer-events="none"/><rect width="2.51" height="4.62" x="252.01" y="110.89" fill="none" stroke="#000" pointer-events="none"/><path fill="#707070" stroke="#000" stroke-miterlimit="10" stroke-width="2" d="M 349 61 L 361.18 49 L 434 49 L 421.82 61 Z" pointer-events="none" transform="translate(391.5,0)scale(-1,1)translate(-391.5,0)"/><path fill="#fff" stroke="#000" stroke-miterlimit="10" d="M 228 1 L 272 1 L 285 14 L 285 55 L 241 55 L 228 42 L 228 1 Z" pointer-events="none"/><path fill="none" stroke="#000" stroke-miterlimit="10" d="M 241 55 L 241 14 L 228 1 M 241 14 L 285 14" pointer-events="none"/><path fill="#fff" stroke="#000" stroke-miterlimit="10" stroke-width="2" d="M 388 18 L 411 54.32 C 411 56.35 400.7 58 388 58 C 375.3 58 365 56.35 365 54.32 Z" pointer-events="none" transform="rotate(-180,388,38)"/><path fill="#fff" stroke="#000" stroke-miterlimit="10" stroke-width="2" d="M 365 54.32 C 365 52.29 375.3 50.64 388 50.64 C 400.7 50.64 411 52.29 411 54.32" pointer-events="none" transform="rotate(-180,388,38)"/><rect width="165.94" height="15" x="12.06" y="315" fill="#fff" stroke="#666" pointer-events="none"/><rect width="3" height="7" x="28.06" y="315" fill="none" stroke="#666" pointer-events="none"/><rect width="3" height="7.8" x="28.06" y="322" fill="none" stroke="#666" pointer-events="none"/><rect width="3" height="7" x="61.06" y="315" fill="none" stroke="#666" pointer-events="none"/><rect width="3" height="7.8" x="61.06" y="322" fill="none" stroke="#666" pointer-events="none"/><rect width="3" height="7" x="94.06" y="315" fill="none" stroke="#666" pointer-events="none"/><rect width="3" height="7.8" x="94.06" y="322" fill="none" stroke="#666" pointer-events="none"/><rect width="3" height="7" x="127.06" y="315" fill="none" stroke="#666" pointer-events="none"/><rect width="3" height="7.8" x="127.06" y="322" fill="none" stroke="#666" pointer-events="none"/><rect width="3" height="7" x="160.06" y="315" fill="none" stroke="#666" pointer-events="none"/><rect width="3" height="7.8" x="160.06" y="322" fill="none" stroke="#666" pointer-events="none"/><path fill="#fff" stroke="#000" stroke-miterlimit="10" d="M 5.56 315 L 12.15 305 L 178 305 L 171.4 315 Z" pointer-events="none" transform="translate(91.78,0)scale(-1,1)translate(-91.78,0)rotate(180,91.78,310)"/><path fill="#fff" stroke="#000" stroke-miterlimit="10" d="M -3 321 L 6.18 315 L 20 315 L 10.82 321 Z" pointer-events="none" transform="rotate(90,8.5,318)"/><path fill="#fff" stroke="#000" stroke-miterlimit="10" d="M 33 225 L 127 225 L 147 245 L 147 319 L 53 319 L 33 299 L 33 225 Z" pointer-events="none"/><path fill="none" stroke="#000" stroke-miterlimit="10" d="M 53 319 L 53 245 L 33 225 M 53 245 L 147 245" pointer-events="none"/><path fill="#707070" stroke="#000" stroke-miterlimit="10" stroke-width="2" d="M 74 239 L 82.1 232 L 111 232 L 102.9 239 Z" pointer-events="none" transform="translate(92.5,0)scale(-1,1)translate(-92.5,0)"/><rect width="24.52" height="12.52" x="88.76" y="272.35" fill="#b4b4b4" stroke="#000" pointer-events="none"/><rect width="22.71" height="12.52" x="89.67" y="272.35" fill="#e8e8e8" stroke="#000" pointer-events="none"/><rect width="4.27" height="3.38" x="90.13" y="273.62" fill="none" stroke="#000" pointer-events="none"/><rect width="4.27" height="3.38" x="94.85" y="273.62" fill="none" stroke="#000" pointer-events="none"/><rect width="7.62" height="4.65" x="100.95" y="272.35" fill="none" stroke="#000" pointer-events="none"/><rect width=".76" height="1.69" x="97.9" y="278.27" fill="none" stroke="#000" pointer-events="none"/><rect width=".76" height="1.69" x="97.9" y="280.81" fill="none" stroke="#000" pointer-events="none"/><rect width=".76" height="1.69" x="100.8" y="278.27" fill="none" stroke="#000" pointer-events="none"/><rect width=".76" height="1.69" x="100.8" y="280.81" fill="none" stroke="#000" pointer-events="none"/><rect width=".76" height="1.69" x="102.02" y="278.27" fill="none" stroke="#000" pointer-events="none"/><rect width=".76" height="1.69" x="102.02" y="280.81" fill="none" stroke="#000" pointer-events="none"/><rect width=".91" height="4.23" x="106.28" y="278.69" fill="none" stroke="#000" pointer-events="none"/><rect width=".91" height="4.23" x="107.65" y="278.69" fill="none" stroke="#000" pointer-events="none"/><rect width=".91" height="4.23" x="109.03" y="278.69" fill="none" stroke="#000" pointer-events="none"/><rect width=".46" height="5.75" x="110.86" y="275.73" fill="none" stroke="#000" pointer-events="none" rx=".23" ry=".23"/><rect width="2.59" height="6.18" x="89.98" y="278.69" fill="none" stroke="#000" pointer-events="none"/><rect width="2.59" height="6.18" x="92.87" y="278.69" fill="none" stroke="#000" pointer-events="none"/><rect width=".76" height="1.69" x="103.23" y="278.27" fill="none" stroke="#000" pointer-events="none"/><rect width=".76" height="1.69" x="103.23" y="280.81" fill="none" stroke="#000" pointer-events="none"/></g></svg>