<svg xmlns="http://www.w3.org/2000/svg" xmlns:xlink="http://www.w3.org/1999/xlink" width="476" height="361" version="1.1" style="background-color:#fff"><g transform="translate(0.5,0.5)"><path fill="#fff" stroke="#000" stroke-miterlimit="10" d="M 164 48 L 454 48 L 474 68 L 474 359 L 184 359 L 164 339 L 164 48 Z" pointer-events="none"/><path fill="none" stroke="#000" stroke-miterlimit="10" d="M 184 359 L 184 68 L 164 48 M 184 68 L 474 68" pointer-events="none"/><path fill="#707070" stroke="#000" stroke-miterlimit="10" stroke-width="2" d="M 239 65 L 254 53 L 399 53 L 384 65 Z" pointer-events="none" transform="translate(319,0)scale(-1,1)translate(-319,0)"/><rect width="80.87" height="34.17" x="204.26" y="91.8" fill="#b4b4b4" stroke="#000" pointer-events="none"/><rect width="74.89" height="34.17" x="207.28" y="91.8" fill="#e8e8e8" stroke="#000" pointer-events="none"/><rect width="14.07" height="9.23" x="208.78" y="95.27" fill="none" stroke="#000" pointer-events="none"/><rect width="14.07" height="9.23" x="224.37" y="95.27" fill="none" stroke="#000" pointer-events="none"/><rect width="25.13" height="12.7" x="244.47" y="91.8" fill="none" stroke="#000" pointer-events="none"/><rect width="2.51" height="4.62" x="234.42" y="107.96" fill="none" stroke="#000" pointer-events="none"/><rect width="2.51" height="4.62" x="234.42" y="114.89" fill="none" stroke="#000" pointer-events="none"/><rect width="2.51" height="4.62" x="243.97" y="107.96" fill="none" stroke="#000" pointer-events="none"/><rect width="2.51" height="4.62" x="243.97" y="114.89" fill="none" stroke="#000" pointer-events="none"/><rect width="2.51" height="4.62" x="247.99" y="107.96" fill="none" stroke="#000" pointer-events="none"/><rect width="2.51" height="4.62" x="247.99" y="114.89" fill="none" stroke="#000" pointer-events="none"/><rect width="3.02" height="11.54" x="262.06" y="109.12" fill="none" stroke="#000" pointer-events="none"/><rect width="3.02" height="11.54" x="266.58" y="109.12" fill="none" stroke="#000" pointer-events="none"/><rect width="3.02" height="11.54" x="271.11" y="109.12" fill="none" stroke="#000" pointer-events="none"/><rect width="1.51" height="15.7" x="277.14" y="101.04" fill="none" stroke="#000" pointer-events="none" rx=".75" ry=".75"/><rect width="8.54" height="16.85" x="208.28" y="109.12" fill="none" stroke="#000" pointer-events="none"/><rect width="8.54" height="16.85" x="217.83" y="109.12" fill="none" stroke="#000" pointer-events="none"/><rect width="2.51" height="4.62" x="252.01" y="107.96" fill="none" stroke="#000" pointer-events="none"/><rect width="2.51" height="4.62" x="252.01" y="114.89" fill="none" stroke="#000" pointer-events="none"/><path fill="#fff" stroke="#000" stroke-miterlimit="10" d="M 260 6 C 260 -0.67 310 -0.67 310 6 L 310 38 C 310 44.67 260 44.67 260 38 Z" pointer-events="none"/><path fill="none" stroke="#000" stroke-miterlimit="10" d="M 260 6 C 260 11 310 11 310 6 M 260 8.5 C 260 13.5 310 13.5 310 8.5 M 260 11 C 260 16 310 16 310 11" pointer-events="none"/><path fill="#fff" stroke="#000" stroke-miterlimit="10" d="M 289 9 L 333 9 L 346 22 L 346 63 L 302 63 L 289 50 L 289 9 Z" pointer-events="none"/><path fill="none" stroke="#000" stroke-miterlimit="10" d="M 302 63 L 302 22 L 289 9 M 302 22 L 346 22" pointer-events="none"/><path fill="#fff" stroke="#000" stroke-miterlimit="10" stroke-width="2" d="M 352 16 L 375 52.32 C 375 54.35 364.7 56 352 56 C 339.3 56 329 54.35 329 52.32 Z" pointer-events="none" transform="rotate(-180,352,36)"/><path fill="#fff" stroke="#000" stroke-miterlimit="10" stroke-width="2" d="M 329 52.32 C 329 50.29 339.3 48.64 352 48.64 C 364.7 48.64 375 50.29 375 52.32" pointer-events="none" transform="rotate(-180,352,36)"/><rect width="165.94" height="15" x="12.06" y="319" fill="#fff" stroke="#666" pointer-events="none"/><rect width="3" height="7" x="28.06" y="319" fill="none" stroke="#666" pointer-events="none"/><rect width="3" height="7.8" x="28.06" y="326" fill="none" stroke="#666" pointer-events="none"/><rect width="3" height="7" x="61.06" y="319" fill="none" stroke="#666" pointer-events="none"/><rect width="3" height="7.8" x="61.06" y="326" fill="none" stroke="#666" pointer-events="none"/><rect width="3" height="7" x="94.06" y="319" fill="none" stroke="#666" pointer-events="none"/><rect width="3" height="7.8" x="94.06" y="326" fill="none" stroke="#666" pointer-events="none"/><rect width="3" height="7" x="127.06" y="319" fill="none" stroke="#666" pointer-events="none"/><rect width="3" height="7.8" x="127.06" y="326" fill="none" stroke="#666" pointer-events="none"/><rect width="3" height="7" x="160.06" y="319" fill="none" stroke="#666" pointer-events="none"/><rect width="3" height="7.8" x="160.06" y="326" fill="none" stroke="#666" pointer-events="none"/><path fill="#fff" stroke="#000" stroke-miterlimit="10" d="M 5.56 319 L 12.15 309 L 178 309 L 171.4 319 Z" pointer-events="none" transform="translate(91.78,0)scale(-1,1)translate(-91.78,0)rotate(180,91.78,314)"/><path fill="#fff" stroke="#000" stroke-miterlimit="10" d="M -3 325 L 6.18 319 L 20 319 L 10.82 325 Z" pointer-events="none" transform="rotate(90,8.5,322)"/><path fill="#fff" stroke="#000" stroke-miterlimit="10" d="M 44 178 L 118 178 L 138 198 L 138 323 L 64 323 L 44 303 L 44 178 Z" pointer-events="none"/><path fill="none" stroke="#000" stroke-miterlimit="10" d="M 64 323 L 64 198 L 44 178 M 64 198 L 138 198" pointer-events="none"/><path fill="#707070" stroke="#000" stroke-miterlimit="10" stroke-width="2" d="M 74.07 190.69 L 79.59 184.97 L 110.85 184.97 L 105.32 190.69 Z" pointer-events="none" transform="translate(92.46,0)scale(-1,1)translate(-92.46,0)"/><rect width="24.52" height="15.93" x="107.76" y="206.42" fill="#b4b4b4" stroke="#000" pointer-events="none"/><rect width="22.71" height="15.93" x="108.67" y="206.42" fill="#e8e8e8" stroke="#000" pointer-events="none"/><rect width="4.27" height="4.31" x="109.13" y="208.04" fill="none" stroke="#000" pointer-events="none"/><rect width="4.27" height="4.31" x="113.85" y="208.04" fill="none" stroke="#000" pointer-events="none"/><rect width="7.62" height="5.92" x="119.95" y="206.42" fill="none" stroke="#000" pointer-events="none"/><rect width=".76" height="2.15" x="116.9" y="213.96" fill="none" stroke="#000" pointer-events="none"/><rect width=".76" height="2.15" x="116.9" y="217.19" fill="none" stroke="#000" pointer-events="none"/><rect width=".76" height="2.15" x="119.8" y="213.96" fill="none" stroke="#000" pointer-events="none"/><rect width=".76" height="2.15" x="119.8" y="217.19" fill="none" stroke="#000" pointer-events="none"/><rect width=".76" height="2.15" x="121.02" y="213.96" fill="none" stroke="#000" pointer-events="none"/><rect width=".76" height="2.15" x="121.02" y="217.19" fill="none" stroke="#000" pointer-events="none"/><rect width=".91" height="5.38" x="125.28" y="214.49" fill="none" stroke="#000" pointer-events="none"/><rect width=".91" height="5.38" x="126.65" y="214.49" fill="none" stroke="#000" pointer-events="none"/><rect width=".91" height="5.38" x="128.03" y="214.49" fill="none" stroke="#000" pointer-events="none"/><rect width=".46" height="7.32" x="129.86" y="210.73" fill="none" stroke="#000" pointer-events="none" rx=".23" ry=".23"/><rect width="2.59" height="7.86" x="108.98" y="214.49" fill="none" stroke="#000" pointer-events="none"/><rect width="2.59" height="7.86" x="111.87" y="214.49" fill="none" stroke="#000" pointer-events="none"/><rect width=".76" height="2.15" x="122.23" y="213.96" fill="none" stroke="#000" pointer-events="none"/><rect width=".76" height="2.15" x="122.23" y="217.19" fill="none" stroke="#000" pointer-events="none"/></g></svg>